M48
;DRILL file {KiCad 4.0.5+dfsg1-4} date Sat May 19 12:28:44 2018
;FORMAT={-:-/ absolute / inch / decimal}
FMAT,2
INCH,TZ
T1C0.031
T2C0.040
T3C0.055
%
G90
G05
M72
T1
X3.8504Y-4.0472
X3.8504Y-4.4472
X3.8583Y-3.5433
X3.8583Y-3.7402
X3.8583Y-3.8898
X4.0157Y-4.0315
X4.0173Y-4.1496
X4.0551Y-3.5433
X4.0551Y-3.8898
X4.1339Y-3.3465
X4.2583Y-3.7402
X4.3307Y-3.3465
X4.4016Y-3.6929
X4.4016Y-3.8898
X4.4157Y-4.0315
X4.4173Y-4.1496
X4.4488Y-3.2087
X4.4488Y-3.3465
X4.5748Y-3.8819
X4.5748Y-3.9819
X4.5748Y-4.0819
X4.5748Y-4.1819
X4.7047Y-3.0709
X4.8488Y-3.2087
X4.8488Y-3.3465
X4.8748Y-3.8819
X4.8748Y-3.9819
X4.8748Y-4.0819
X4.8748Y-4.1819
X5.1024Y-3.6929
X5.1024Y-4.0929
X5.1047Y-3.0709
X5.1772Y-3.3661
X5.252Y-3.6929
X5.252Y-4.0929
X5.374Y-3.3661
X5.4094Y-4.0787
X5.4094Y-4.2756
X5.5709Y-3.537
X5.5709Y-3.937
X5.5709Y-4.0315
X5.5709Y-4.4315
T2
X3.878Y-3.3465
X3.978Y-3.3465
X4.3488Y-3.0512
X4.4488Y-3.0512
X4.5898Y-3.7087
X4.6717Y-4.3307
X4.6898Y-3.7087
X4.7717Y-4.3307
X4.7898Y-3.7087
X4.8717Y-4.3307
X4.8898Y-3.7087
X5.Y-3.2283
X5.1Y-3.2283
X5.5118Y-3.3661
X5.6118Y-3.3661
T3
X4.2047Y-3.5433
X4.7047Y-3.5433
X4.8819Y-3.5433
X5.3819Y-3.5433
T0
M30
